// Echo Electron Mini Electronic Piano
// Created by David Hilowitz (dhilowitz@gmail.com)

<region>
sample=Samples/Electron_Echo_69_100.wav
lokey=24
hikey=69
pitch_keycenter=69
tune=-41

<region>
sample=Samples/Electron_Echo_71_100.wav
lokey=70
hikey=71
pitch_keycenter=71
tune=-46

<region>
sample=Samples/Electron_Echo_73_100.wav
lokey=72
hikey=73
pitch_keycenter=73
tune=-45

<region>
sample=Samples/Electron_Echo_75_100.wav
lokey=74
hikey=75
pitch_keycenter=75
tune=42

<region>
sample=Samples/Electron_Echo_76_100.wav
lokey=76
hikey=76
pitch_keycenter=76
tune=-33

<region>
sample=Samples/Electron_Echo_78_100.wav
lokey=77
hikey=78
pitch_keycenter=78
tune=-34

<region>
sample=Samples/Electron_Echo_79_100.wav
lokey=79
hikey=79
pitch_keycenter=79
tune=-18

<region>
sample=Samples/Electron_Echo_81_100.wav
lokey=80
hikey=81
pitch_keycenter=81
tune=-43

<region>
sample=Samples/Electron_Echo_84_100.wav
lokey=82
hikey=84
pitch_keycenter=84
tune=20

<region>
sample=Samples/Electron_Echo_86_100.wav
lokey=85
hikey=86
pitch_keycenter=86
tune=16

<region>
sample=Samples/Electron_Echo_87_100.wav
lokey=87
hikey=87
pitch_keycenter=87
tune=38

<region>
sample=Samples/Electron_Echo_89_100.wav
lokey=88
hikey=89
pitch_keycenter=89
tune=-8

<region>
sample=Samples/Electron_Echo_91_100.wav
lokey=90
hikey=108
pitch_keycenter=91
tune=5
